<svg width="14" height="15" viewBox="0 0 14 15" fill="none" xmlns="http://www.w3.org/2000/svg">
<path d="M11.73 8.40113L8.07371 12.0574C7.95923 12.1719 7.80397 12.2362 7.64207 12.2362C7.48017 12.2362 7.32491 12.1719 7.21043 12.0574C7.09595 11.9429 7.03164 11.7876 7.03164 11.6257C7.03164 11.4638 7.09595 11.3086 7.21043 11.1941L9.82617 8.57937H2.36133C2.19971 8.57937 2.04471 8.51517 1.93043 8.40089C1.81615 8.28661 1.75195 8.13162 1.75195 7.97C1.75195 7.80838 1.81615 7.65339 1.93043 7.53911C2.04471 7.42483 2.19971 7.36062 2.36133 7.36062H9.82617L7.21144 4.74437C7.09697 4.6299 7.03265 4.47463 7.03265 4.31273C7.03265 4.15084 7.09697 3.99557 7.21144 3.88109C7.32592 3.76661 7.48119 3.7023 7.64309 3.7023C7.80498 3.7023 7.96025 3.76661 8.07473 3.88109L11.731 7.53734C11.7878 7.59403 11.8329 7.66139 11.8636 7.73554C11.8943 7.80969 11.91 7.88919 11.91 7.96945C11.9099 8.04971 11.8939 8.12916 11.863 8.20325C11.8321 8.27733 11.7869 8.34458 11.73 8.40113Z" fill="#E65B48"/>
</svg>
