<svg width="37" height="37" viewBox="0 0 37 37" fill="none" xmlns="http://www.w3.org/2000/svg">
<path d="M32.0207 17.7917H29.4582V10.9583C29.4582 10.0522 29.0982 9.18313 28.4575 8.54238C27.8167 7.90163 26.9477 7.54166 26.0415 7.54166H19.2082V4.97916C19.2082 3.84647 18.7582 2.76016 17.9573 1.95923C17.1563 1.15829 16.07 0.708328 14.9373 0.708328C13.8046 0.708328 12.7183 1.15829 11.9174 1.95923C11.1165 2.76016 10.6665 3.84647 10.6665 4.97916V7.54166H3.83317C2.92701 7.54166 2.05797 7.90163 1.41722 8.54238C0.776473 9.18313 0.416504 10.0522 0.416504 10.9583V17.45H2.979C5.5415 17.45 7.5915 19.5 7.5915 22.0625C7.5915 24.625 5.5415 26.675 2.979 26.675H0.416504V33.1667C0.416504 34.0728 0.776473 34.9419 1.41722 35.5826C2.05797 36.2234 2.92701 36.5833 3.83317 36.5833H10.3248V34.0208C10.3248 31.4583 12.3748 29.4083 14.9373 29.4083C17.4998 29.4083 19.5498 31.4583 19.5498 34.0208V36.5833H26.0415C26.9477 36.5833 27.8167 36.2234 28.4575 35.5826C29.0982 34.9419 29.4582 34.0728 29.4582 33.1667V26.3333H32.0207C33.1534 26.3333 34.2397 25.8834 35.0406 25.0824C35.8415 24.2815 36.2915 23.1952 36.2915 22.0625C36.2915 20.9298 35.8415 19.8435 35.0406 19.0426C34.2397 18.2416 33.1534 17.7917 32.0207 17.7917Z" fill="#FF7171"/>
</svg>
