<svg width="37" height="37" viewBox="0 0 37 37" fill="none" xmlns="http://www.w3.org/2000/svg">
<path d="M18.5 2.3125C22.7932 2.3125 26.9105 4.01796 29.9463 7.05371C32.982 10.0895 34.6875 14.2068 34.6875 18.5C34.6875 22.7932 32.982 26.9105 29.9463 29.9463C26.9105 32.982 22.7932 34.6875 18.5 34.6875C14.2068 34.6875 10.0895 32.982 7.05371 29.9463C4.01796 26.9105 2.3125 22.7932 2.3125 18.5C2.3125 14.2068 4.01796 10.0895 7.05371 7.05371C10.0895 4.01796 14.2068 2.3125 18.5 2.3125ZM18.5 32.375C22.1799 32.375 25.709 30.9132 28.3111 28.3111C30.9132 25.709 32.375 22.1799 32.375 18.5C32.375 14.8201 30.9132 11.291 28.3111 8.68889C25.709 6.08683 22.1799 4.625 18.5 4.625C14.8201 4.625 11.291 6.08683 8.68889 8.68889C6.08683 11.291 4.625 14.8201 4.625 18.5C4.625 22.1799 6.08683 25.709 8.68889 28.3111C11.291 30.9132 14.8201 32.375 18.5 32.375ZM20.2344 26.0156C20.2344 26.4756 20.0516 26.9168 19.7264 27.242C19.4011 27.5673 18.96 27.75 18.5 27.75C18.04 27.75 17.5989 27.5673 17.2736 27.242C16.9484 26.9168 16.7656 26.4756 16.7656 26.0156C16.7656 25.5556 16.9484 25.1145 17.2736 24.7892C17.5989 24.464 18.04 24.2812 18.5 24.2812C18.96 24.2812 19.4011 24.464 19.7264 24.7892C20.0516 25.1145 20.2344 25.5556 20.2344 26.0156ZM18.5 9.25C18.8067 9.25 19.1008 9.37182 19.3176 9.58866C19.5344 9.8055 19.6562 10.0996 19.6562 10.4062V20.8125C19.6562 21.1192 19.5344 21.4133 19.3176 21.6301C19.1008 21.8469 18.8067 21.9688 18.5 21.9688C18.1933 21.9688 17.8992 21.8469 17.6824 21.6301C17.4656 21.4133 17.3438 21.1192 17.3438 20.8125V10.4062C17.3438 10.0996 17.4656 9.8055 17.6824 9.58866C17.8992 9.37182 18.1933 9.25 18.5 9.25Z" fill="white"/>
</svg>
