<svg xmlns="http://www.w3.org/2000/svg" width="123" height="61" viewBox="0 0 123 61" fill="none">
<mask id="mask0_41_2031" style="mask-type:luminance" maskUnits="userSpaceOnUse" x="77" y="1" width="30" height="29">
<path d="M106.168 1.29788H77.6842V29.8511H106.168V1.29788Z" fill="white"/>
</mask>
<g mask="url(#mask0_41_2031)">
<path fill-rule="evenodd" clip-rule="evenodd" d="M84.8053 4.86703C83.861 4.86703 82.9554 5.24307 82.2877 5.91242C81.6198 6.58176 81.2448 7.48958 81.2448 8.43618V22.7128C81.2448 23.6593 81.6198 24.5672 82.2877 25.2365C82.9554 25.9059 83.861 26.2819 84.8053 26.2819H99.0474C99.9916 26.2819 100.897 25.9059 101.565 25.2365C102.233 24.5672 102.608 23.6593 102.608 22.7128V16.7642C102.608 16.4487 102.483 16.1461 102.26 15.923C102.038 15.6999 101.736 15.5745 101.421 15.5745C101.106 15.5745 100.804 15.6999 100.582 15.923C100.359 16.1461 100.234 16.4487 100.234 16.7642V22.7128C100.234 23.0283 100.109 23.331 99.8866 23.5541C99.6641 23.7772 99.3621 23.9025 99.0474 23.9025H84.8053C84.4905 23.9025 84.1886 23.7772 83.966 23.5541C83.7435 23.331 83.6184 23.0283 83.6184 22.7128V8.43618C83.6184 8.12065 83.7435 7.81805 83.966 7.59493C84.1886 7.37181 84.4905 7.24646 84.8053 7.24646H94.3C94.6147 7.24646 94.9167 7.12113 95.1392 6.89801C95.3618 6.67489 95.4869 6.37228 95.4869 6.05676C95.4869 5.74122 95.3618 5.4386 95.1392 5.2155C94.9167 4.99238 94.6147 4.86703 94.3 4.86703H84.8053ZM103.033 8.48972C103.306 8.33376 103.507 8.07535 103.59 7.77127C103.674 7.46721 103.633 7.14236 103.478 6.86813C103.32 6.59609 103.062 6.39694 102.759 6.31353C102.457 6.2301 102.133 6.26905 101.859 6.42199C101.44 6.65994 101.035 6.92643 100.637 7.19531C99.6256 7.87761 98.6499 8.61102 97.7134 9.39272C95.7646 11.0179 93.4241 13.3068 91.4956 16.1955C90.8973 15.4029 90.201 14.6896 89.4232 14.0731C88.9165 13.6769 88.3527 13.2879 87.7439 13.0666C87.4484 12.9579 87.1207 12.9713 86.8349 13.104C86.5493 13.2366 86.3279 13.4775 86.2194 13.7738C86.111 14.0701 86.1244 14.3974 86.2567 14.6839C86.389 14.9702 86.6294 15.1921 86.925 15.3009C86.9547 15.3127 87.3641 15.4793 87.9647 15.9492C88.6506 16.4846 89.5977 17.4233 90.5116 18.9914C90.6167 19.1719 90.7674 19.3214 90.9487 19.425C91.1298 19.5286 91.3349 19.5824 91.5435 19.5813C91.7519 19.5801 91.9565 19.5238 92.1365 19.4181C92.3164 19.3125 92.4653 19.1612 92.5684 18.9795C94.4484 15.659 97.0629 13.0309 99.2314 11.2225C100.311 10.3219 101.273 9.63304 101.959 9.17143C102.309 8.93467 102.665 8.70268 103.032 8.49092L103.033 8.48972Z" fill="url(#paint0_linear_41_2031)"/>
</g>
<path d="M7.57425 22.2974C6.71973 22.2974 5.87297 22.2196 5.03398 22.0638C4.21053 21.9237 3.4803 21.7368 2.84328 21.5032C2.20627 21.2695 1.74794 21.0359 1.46827 20.8023V15.9197C2.05867 16.2468 2.71899 16.5427 3.44922 16.8074C4.17945 17.0722 4.91745 17.2825 5.66322 17.4382C6.42453 17.5784 7.14699 17.6485 7.83061 17.6485C8.77836 17.6485 9.25223 17.4304 9.25223 16.9943C9.25223 16.7763 9.15124 16.5972 8.94926 16.457C8.76282 16.3013 8.42878 16.1377 7.94714 15.9664C7.46549 15.7951 6.78187 15.5771 5.89627 15.3123C4.87084 14.9852 3.99301 14.6426 3.26278 14.2844C2.54808 13.9262 1.99653 13.4667 1.60811 12.906C1.23522 12.3454 1.04878 11.5978 1.04878 10.6633C1.04878 9.04358 1.69356 7.74311 2.98312 6.76192C4.27267 5.78073 6.1604 5.29013 8.64629 5.29013C9.14347 5.29013 9.67173 5.31349 10.2311 5.36022C10.8059 5.39136 11.2643 5.43809 11.6061 5.50039L14.4726 7.43941L13.3073 10.9904L7.3412 9.47187C6.71973 9.47187 6.40899 9.68213 6.40899 10.1026C6.40899 10.4297 6.6032 10.7023 6.99162 10.9203C7.39558 11.1228 8.11804 11.4031 9.15901 11.7613C10.5418 12.2286 11.6371 12.7114 12.4451 13.2097C13.2685 13.6926 13.8589 14.2455 14.2163 14.8684C14.5736 15.4914 14.7523 16.2312 14.7523 17.0878C14.7523 18.6452 14.1541 19.9068 12.9578 20.8724C11.7614 21.8224 9.96693 22.2974 7.57425 22.2974ZM16.6588 12.4622L17.3812 11.0371H21.7859V12.0417L21.9957 12.1818C22.1666 12.0261 22.3996 11.847 22.6948 11.6445C23.0056 11.4265 23.3707 11.2318 23.7902 11.0605C24.2252 10.8892 24.7224 10.8035 25.2817 10.8035C26.6334 10.8035 27.62 11.2707 28.2415 12.2052C28.5833 11.8314 29.0106 11.5043 29.5233 11.224C30.0515 10.9281 30.6963 10.7801 31.4576 10.7801C32.8559 10.7801 33.9435 11.1773 34.7204 11.9716C35.4972 12.7659 35.8856 13.8794 35.8856 15.3123V18.3026L36.375 20.6388L35.8856 22.0638H30.7352V16.1767C30.7352 15.6783 30.6652 15.3279 30.5254 15.1254C30.4011 14.9074 30.1836 14.7983 29.8729 14.7983C29.5777 14.7983 29.3601 14.9307 29.2203 15.1955C29.0805 15.4603 29.0106 15.7951 29.0106 16.2V22.0638H23.8601V16.1533C23.8601 15.6861 23.7513 15.3434 23.5338 15.1254C23.3318 14.8918 22.9823 14.775 22.4851 14.775L22.252 15.0086V22.0638H17.1249V15.032L16.6588 12.4622ZM41.1329 22.2974C40.092 22.2974 39.2452 22.056 38.5927 21.5732C37.9556 21.0749 37.6371 20.2105 37.6371 18.9801C37.6371 17.8432 38.01 16.9866 38.7558 16.4103C39.5171 15.8185 40.5425 15.5226 41.8321 15.5226C42.5312 15.5226 43.0906 15.5926 43.5101 15.7328C43.9296 15.8574 44.2481 15.982 44.4656 16.1066L44.6287 15.9898C44.6287 15.507 44.5433 15.1488 44.3724 14.9152C44.2015 14.666 43.7897 14.5414 43.1372 14.5414C42.5623 14.5414 41.9719 14.6037 41.366 14.7283C40.7756 14.8373 40.2162 14.9852 39.688 15.1721C39.1597 15.3434 38.7092 15.5303 38.3363 15.7328V11.5277C38.5849 11.4498 38.9811 11.3564 39.5249 11.2474C40.0686 11.1383 40.7212 11.0449 41.4825 10.967C42.2438 10.8736 43.0595 10.8269 43.9296 10.8269C45.39 10.8269 46.5475 11.006 47.402 11.3642C48.2566 11.7068 48.8625 12.213 49.2198 12.8827C49.5927 13.5368 49.7792 14.3233 49.7792 15.2422V18.3493L50.2453 20.7089L49.7792 22.0872H44.8618V20.9425L44.6287 20.8257C44.3801 21.1839 43.9529 21.5187 43.3469 21.8302C42.7565 22.1417 42.0185 22.2974 41.1329 22.2974ZM43.7664 19.2371C43.9995 19.2371 44.1937 19.1981 44.349 19.1203C44.5044 19.0424 44.5976 18.9957 44.6287 18.9801V18.4661C44.6287 18.2325 44.5588 18.03 44.419 17.8587C44.2791 17.6874 44.0694 17.6017 43.7897 17.6017C43.5411 17.6017 43.3081 17.6718 43.0906 17.812C42.873 17.9366 42.7643 18.1624 42.7643 18.4895C42.7643 18.9879 43.0983 19.2371 43.7664 19.2371ZM52.2199 22.0638V14.7516L51.7305 12.4154L52.2199 11.0137H56.3216L56.7877 11.5511C56.7877 11.5511 56.8732 11.4888 57.0441 11.3642C57.2305 11.224 57.4869 11.0916 57.8131 10.967C58.1394 10.8424 58.5201 10.7801 58.9551 10.7801C59.2658 10.7801 59.5766 10.8035 59.8873 10.8502C60.198 10.8969 60.4389 10.9592 60.6098 11.0371L63.0568 13.2565L61.0759 16.4804L57.9996 14.7283L57.3004 14.9619V22.0638H52.2199ZM69.1947 22.2974C67.8274 22.2974 66.8253 22.0171 66.1883 21.4564C65.5513 20.8957 65.2328 20.0781 65.2328 19.0034V14.6114H63.2984V11.6912L64.9997 10.5465L66.6544 7.64966H70.3366V11.0371H73.8324V14.775H70.3366V18.3727L73.8324 18.3493V21.5966C73.8324 21.5966 73.6926 21.6355 73.4129 21.7134C73.1332 21.7757 72.7604 21.8536 72.2943 21.947C71.8437 22.0405 71.3465 22.1183 70.8027 22.1806C70.2589 22.2585 69.7229 22.2974 69.1947 22.2974ZM11.2228 48.3068C9.91255 48.3068 8.64025 48.1546 7.40594 47.85C6.19061 47.5453 5.09872 47.0124 4.13025 46.251C3.16179 45.4895 2.39272 44.4331 1.82303 43.0816C1.25335 41.7301 0.968506 40.0073 0.968506 37.9134C0.968506 36.0289 1.24385 34.43 1.79455 33.1165C2.34524 31.784 3.09533 30.7086 4.0448 29.89C4.99427 29.0714 6.08617 28.4718 7.32048 28.0912C8.5548 27.7105 9.85558 27.5201 11.2228 27.5201C12.1913 27.5201 13.1313 27.5963 14.0428 27.7485C14.9733 27.9008 15.6473 28.0721 16.0651 28.2625L19.5117 31.1463L16.6633 35.8576L11.2228 33.3449C10.5772 33.3449 9.96952 33.5257 9.39983 33.8874C8.84914 34.2301 8.39339 34.744 8.03259 35.4293C7.69078 36.0955 7.51987 36.9236 7.51987 37.9134C7.51987 39.1698 7.70977 40.1406 8.08956 40.8259C8.48834 41.4921 9.04853 41.9489 9.77013 42.1964C10.5107 42.4439 11.3842 42.5676 12.3907 42.5676C13.3591 42.5676 14.2706 42.4725 15.1252 42.2821C15.9987 42.0727 16.7678 41.8347 17.4324 41.5683C18.097 41.3018 18.6002 41.0734 18.942 40.883V46.5936C18.5623 46.784 18.0211 47.0219 17.3184 47.3074C16.6348 47.5739 15.7803 47.8119 14.7549 48.0213C13.7485 48.2117 12.5711 48.3068 11.2228 48.3068ZM21.9 48.0213V32.3741L21.3303 29.5188L21.9 27.8056H28.1665V32.4312L27.8817 35.6006L28.1665 35.7434C28.2614 35.6483 28.4703 35.4864 28.7932 35.258C29.116 35.0105 29.5432 34.7821 30.075 34.5727C30.6066 34.3443 31.2048 34.2301 31.8695 34.2301C33.5785 34.2301 34.7653 34.7155 35.43 35.6863C36.0946 36.6571 36.4269 38.0182 36.4269 39.7694V43.4813L37.0251 46.2795L36.4269 48.0213H30.1319V40.7973C30.1319 40.1882 30.0084 39.7599 29.7616 39.5124C29.5147 39.246 29.078 39.1127 28.4514 39.1127L28.1665 39.3982V48.0213H21.9ZM45.8658 48.3068C43.5492 48.3068 41.7071 47.7548 40.3399 46.6507C38.9727 45.5466 38.289 43.7574 38.289 41.2827C38.289 38.7891 38.9727 36.9997 40.3399 35.9147C41.7071 34.8106 43.5492 34.2586 45.8658 34.2586C48.2585 34.2586 50.11 34.8106 51.4203 35.9147C52.7305 36.9997 53.3857 38.7891 53.3857 41.2827C53.3857 43.7574 52.7305 45.5466 51.4203 46.6507C50.11 47.7548 48.2585 48.3068 45.8658 48.3068ZM45.8658 43.7383C46.2267 43.7383 46.521 43.5955 46.7488 43.31C46.9767 43.0054 47.0907 42.3297 47.0907 41.2827C47.0907 40.2168 46.9767 39.541 46.7488 39.2554C46.54 38.9699 46.2456 38.8272 45.8658 38.8272C45.505 38.8272 45.2012 38.9699 44.9543 39.2554C44.7074 39.541 44.584 40.2168 44.584 41.2827C44.584 42.3297 44.7074 43.0054 44.9543 43.31C45.2012 43.5955 45.505 43.7383 45.8658 43.7383ZM58.6072 33.7161L54.3915 30.0613L58.6072 26.4351L62.8229 30.0613L58.6072 33.7161ZM55.4455 48.0213V38.5702L54.8473 36.2859L55.417 34.5442H61.712V48.0213H55.4455ZM70.9279 48.3068C69.5227 48.3068 68.241 48.0879 67.0826 47.6501C65.9432 47.2123 65.0413 46.4794 64.3766 45.4515C63.712 44.4236 63.3796 43.0339 63.3796 41.2827C63.3796 39.9313 63.6075 38.8081 64.0632 37.9134C64.519 37.0188 65.1171 36.305 65.8577 35.772C66.5983 35.22 67.4055 34.8297 68.2789 34.6013C69.1715 34.3729 70.0545 34.2586 70.9279 34.2586C71.9724 34.2586 72.8554 34.3063 73.577 34.4014C74.2986 34.4776 74.8114 34.5347 75.1151 34.5727L77.3369 37.0854L74.7733 40.7688L71.4976 39.1127C71.0799 39.1127 70.7096 39.2649 70.3867 39.5695C70.0639 39.8741 69.9025 40.4452 69.9025 41.2827C69.9025 42.1584 70.0924 42.7389 70.4722 43.0245C70.8709 43.31 71.4027 43.4528 72.0673 43.4528C73.2447 43.4528 74.2606 43.3005 75.1151 42.9959C75.9696 42.6724 76.6059 42.4154 77.0235 42.225V47.1932C76.302 47.555 75.3905 47.8309 74.2891 48.0213C73.2067 48.2117 72.0863 48.3068 70.9279 48.3068ZM86.8735 48.3068C85.4114 48.3068 84.0821 48.0975 82.8857 47.6786C81.7084 47.2409 80.7684 46.5174 80.0658 45.5086C79.3822 44.4807 79.0404 43.0721 79.0404 41.2827C79.0404 40.0264 79.2493 38.9508 79.667 38.0562C80.1039 37.1616 80.683 36.4382 81.4045 35.8862C82.1262 35.3151 82.9332 34.9059 83.8257 34.6584C84.7183 34.3919 85.6392 34.2586 86.5887 34.2586C87.785 34.2586 88.782 34.3348 89.5795 34.4871C90.3961 34.6393 91.0512 34.8106 91.5449 35.001C92.0387 35.1914 92.4185 35.3627 92.6843 35.515L94.1085 40.0549L93.5388 41.8252H85.2784C85.3544 42.3583 85.6298 42.8151 86.1044 43.1958C86.5792 43.5575 87.4053 43.7383 88.5826 43.7383C89.703 43.7383 90.6334 43.6146 91.374 43.3671C92.1146 43.1196 92.6463 42.9293 92.9691 42.796V47.1932C92.5894 47.4026 92.0672 47.593 91.4025 47.7643C90.7379 47.9356 90.0068 48.0689 89.2092 48.164C88.4307 48.2592 87.6522 48.3068 86.8735 48.3068ZM85.1929 39.9693L88.0983 39.4268L87.842 38.5131C87.5762 38.3608 87.2534 38.2846 86.8735 38.2846C86.2469 38.2846 85.8007 38.456 85.5348 38.7986C85.288 39.1412 85.174 39.5315 85.1929 39.9693Z" fill="url(#paint1_linear_41_2031)"/>
<defs>
<linearGradient id="paint0_linear_41_2031" x1="92.4387" y1="4.86703" x2="92.4387" y2="26.2819" gradientUnits="userSpaceOnUse">
<stop stop-color="#ffffff"/>
<stop offset="1" stop-color="#ffffff"/>
</linearGradient>
<linearGradient id="paint1_linear_41_2031" x1="47.5385" y1="5.29013" x2="47.5385" y2="48.3068" gradientUnits="userSpaceOnUse">
<stop stop-color="#ffffff"/>
<stop offset="1" stop-color="#ffffff"/>
</linearGradient>
</defs>
</svg>