<svg width="1440" height="283" viewBox="0 0 1440 283" fill="none" xmlns="http://www.w3.org/2000/svg">
<path fill-rule="evenodd" clip-rule="evenodd" d="M1366 0H-7.62939e-05V147H-81.4617C9.45494 181.927 145.627 212.692 274.414 235.454C384.904 254.982 494.666 258.901 605.05 262.842L605.053 262.842C647.922 264.373 690.886 265.907 734.022 268.36C762.614 269.986 791.817 272.055 820.986 274.121L820.986 274.121C909.092 280.364 996.877 286.583 1066.53 280.499C1131.91 274.787 1162.79 258.23 1193.72 241.641C1204.08 236.088 1214.44 230.53 1226.11 225.375C1243.4 217.736 1253.94 208.804 1264.44 199.915C1278.28 188.194 1292.02 176.549 1321.02 168.048C1364.6 155.272 1432.97 148.186 1500.31 141.207C1610.14 129.824 1717.2 118.728 1709.41 83.6911C1705.36 65.4556 1663.47 47.7933 1604 30.9839V111H1366V0ZM-170 36.23C-188.35 55.638 -193.995 76.475 -170 99.2185V36.23Z" fill="#FF7171" fill-opacity="0.26"/>
</svg>
